<svg width="58" height="55" viewBox="0 0 58 55" fill="none" xmlns="http://www.w3.org/2000/svg">
<ellipse cx="10.8468" cy="39.7702" rx="11.2718" ry="6.01711" transform="rotate(60 10.8468 39.7702)" fill="#474343"/>
<rect x="27.5805" y="16.9512" width="19.3534" height="16.3759" transform="rotate(60 27.5805 16.9512)" fill="#474343"/>
<rect x="32.7731" y="19.8125" width="9.32667" height="4.19924" transform="rotate(60 32.7731 19.8125)" fill="#474343"/>
<rect x="8.7355" y="17.4111" width="15.3308" height="6.98649" transform="rotate(-30 8.7355 17.4111)" fill="#474343"/>
<rect x="5.93054" y="11.5918" width="15.3308" height="4.90845" transform="rotate(-30 5.93054 11.5918)" fill="#474343"/>
<rect x="41.2276" y="41.291" width="15.3308" height="6.98649" transform="rotate(150 41.2276 41.291)" fill="#474343"/>
<rect x="45.0327" y="47.1104" width="15.3308" height="4.90845" transform="rotate(150 45.0327 47.1104)" fill="#474343"/>
<path d="M33.7519 2C33.7519 2 45.4171 3.17134 52.3609 12.9539C57.0397 19.5456 55.87 33.9012 55.87 33.9012" stroke="#474343" stroke-width="3" stroke-linecap="round"/>
<path d="M32.0505 8.80566C32.0505 8.80566 40.9713 9.69589 46.2815 17.1307C49.8596 22.1404 48.965 33.0506 48.965 33.0506" stroke="#474343" stroke-width="3" stroke-linecap="round"/>
<path d="M34.6026 16.8877C34.6026 16.8877 39.063 17.3328 41.7181 21.0502C43.5071 23.555 43.0599 29.0101 43.0599 29.0101" stroke="#474343" stroke-width="3" stroke-linecap="round"/>
</svg>
